<?xml version="1.0" standalone="no"?>
<!DOCTYPE svg PUBLIC "-//W3C//DTD SVG 20010904//EN"
 "http://www.w3.org/TR/2001/REC-SVG-20010904/DTD/svg10.dtd">
<svg version="1.0" xmlns="http://www.w3.org/2000/svg"
 width="512.000000pt" height="512.000000pt" viewBox="0 0 512.000000 512.000000"
 preserveAspectRatio="xMidYMid meet">

<g transform="translate(0.000000,512.000000) scale(0.100000,-0.100000)"
fill="#000000" stroke="none">
<path d="M775 3025 c-36 -35 -34 -88 4 -126 l29 -29 202 0 202 0 29 29 c38 38
39 87 4 125 l-24 26 -211 0 c-211 0 -211 0 -235 -25z"/>
<path d="M1375 3025 c-17 -16 -25 -35 -25 -59 0 -96 1 -96 430 -96 l362 0
-126 -135 c-94 -102 -128 -145 -136 -175 -22 -81 14 -159 90 -197 97 -50 145
-28 296 135 64 70 137 143 162 162 l45 35 226 3 227 3 24 -26 c34 -36 35 -105
2 -137 -22 -22 -29 -23 -273 -28 l-251 -5 -24 -28 c-27 -32 -30 -66 -9 -106
18 -36 32 -41 111 -41 35 0 64 -3 64 -6 0 -4 -54 -121 -121 -261 -74 -158
-124 -277 -131 -312 -28 -152 50 -315 189 -393 29 -16 53 -35 53 -41 -1 -27
-87 -172 -113 -191 -18 -14 -48 -21 -92 -24 l-65 -4 206 -129 c113 -71 209
-129 214 -129 10 0 66 109 161 314 l73 158 171 -5 c93 -3 180 -8 192 -12 11
-4 124 -118 249 -253 125 -136 243 -257 263 -270 46 -29 136 -27 179 5 36 27
70 78 78 118 14 76 -2 99 -256 372 -132 142 -265 279 -296 305 -80 67 -121 78
-281 78 -76 0 -133 4 -133 9 0 8 60 144 283 639 23 50 44 92 48 92 3 0 65 -66
139 -146 141 -155 181 -184 255 -183 l40 0 95 166 c52 92 96 170 98 174 1 3
-32 8 -75 11 -52 3 -87 10 -105 22 -15 10 -104 101 -198 202 -94 101 -176 184
-181 184 -6 0 -7 5 -3 12 4 6 3 8 -4 4 -6 -3 -124 43 -262 104 l-251 110 -795
0 -795 0 -24 -25z"/>
</g>
</svg>
