<?xml version="1.0" standalone="no"?>
<!DOCTYPE svg PUBLIC "-//W3C//DTD SVG 20010904//EN"
 "http://www.w3.org/TR/2001/REC-SVG-20010904/DTD/svg10.dtd">
<svg version="1.0" xmlns="http://www.w3.org/2000/svg"
 width="512.000000pt" height="512.000000pt" viewBox="0 0 512.000000 512.000000"
 preserveAspectRatio="xMidYMid meet">

<g transform="translate(0.000000,512.000000) scale(0.100000,-0.100000)"
fill="#000000" stroke="none">
<path d="M2045 5114 c-380 -27 -469 -37 -685 -75 -550 -97 -978 -298 -1142
-537 -58 -84 -78 -154 -78 -273 l0 -107 58 -47 c77 -62 309 -174 462 -224 401
-130 875 -202 1432 -220 742 -23 1413 54 1928 220 153 50 385 162 463 225 l59
47 -4 121 c-3 118 -4 123 -42 199 -164 329 -760 572 -1598 653 -152 14 -734
27 -853 18z"/>
<path d="M140 3398 l0 -414 27 -26 c200 -185 729 -353 1353 -428 871 -105
1858 -33 2512 184 215 71 391 161 481 244 l27 26 0 414 0 414 -32 -22 c-139
-92 -454 -212 -725 -274 -449 -104 -891 -150 -1443 -150 -552 0 -994 46 -1443
150 -271 62 -586 182 -724 274 l-33 22 0 -414z"/>
<path d="M140 2241 l0 -409 45 -40 c202 -178 707 -338 1295 -411 263 -33 387
-41 681 -48 311 -7 280 -14 294 72 20 119 63 241 137 385 71 139 161 262 270
365 l81 78 -59 -7 c-33 -3 -212 -9 -399 -12 -615 -12 -1125 34 -1575 142 -267
63 -548 167 -694 255 -36 21 -67 39 -70 39 -4 0 -6 -184 -6 -409z"/>
<path d="M3715 2279 c-666 -69 -1129 -700 -998 -1359 94 -473 473 -833 953
-906 234 -35 472 5 684 114 608 313 810 1080 432 1646 -133 199 -319 350 -531
431 -119 45 -189 62 -314 74 -113 12 -111 12 -226 0z m360 -199 c337 -91 592
-340 690 -675 36 -123 45 -313 21 -435 -45 -220 -133 -380 -292 -530 -118
-111 -250 -186 -405 -230 -92 -27 -302 -38 -405 -21 -402 62 -723 379 -800
788 -21 114 -15 295 15 408 54 204 185 402 351 527 116 89 303 167 455 191 72
12 291 -2 370 -23z"/>
<path d="M4307 1648 c-12 -13 -129 -177 -260 -365 -131 -188 -241 -344 -246
-347 -4 -3 -90 62 -190 145 -126 103 -190 149 -207 149 -80 0 -123 -87 -71
-144 44 -49 441 -367 464 -373 55 -13 74 9 368 431 214 308 285 417 285 438 0
19 -10 40 -29 59 -37 36 -82 39 -114 7z"/>
<path d="M140 1146 c0 -349 1 -368 21 -423 56 -151 199 -283 428 -398 307
-154 705 -250 1271 -307 171 -17 732 -16 943 1 l168 14 -86 80 c-242 225 -407
541 -440 842 -12 118 15 105 -225 105 -594 0 -1247 97 -1660 247 -119 43 -286
122 -377 178 l-43 26 0 -365z"/>
</g>
</svg>
