<?xml version="1.0" standalone="no"?>
<!DOCTYPE svg PUBLIC "-//W3C//DTD SVG 20010904//EN"
 "http://www.w3.org/TR/2001/REC-SVG-20010904/DTD/svg10.dtd">
<svg version="1.0" xmlns="http://www.w3.org/2000/svg"
 width="200.000000pt" height="200.000000pt" viewBox="0 0 200.000000 200.000000"
 preserveAspectRatio="xMidYMid meet">

<g transform="translate(0.000000,200.000000) scale(0.100000,-0.100000)"
fill="#000000" stroke="none">
<path d="M119 1972 c-39 -20 -62 -41 -84 -77 l-30 -48 -3 -674 -2 -673 277 0
c305 0 293 -4 180 59 -36 21 -55 37 -49 43 5 5 55 36 111 68 119 68 91 71 258
-26 50 -30 94 -54 97 -54 4 0 5 82 4 182 l-3 182 -145 83 c-79 46 -150 81
-157 79 -10 -4 -13 -40 -13 -145 l0 -140 -111 -66 c-61 -36 -113 -65 -115 -65
-2 0 -4 159 -4 353 l1 352 297 170 c163 94 302 171 310 173 10 3 12 -24 10
-129 l-3 -133 -90 -53 c-155 -90 -159 -93 -144 -107 23 -21 279 -166 294 -166
12 0 280 152 299 170 4 5 -48 41 -118 82 l-126 73 0 133 c0 72 3 132 6 132 3
0 80 -44 172 -97 92 -53 221 -127 287 -165 66 -38 126 -75 133 -82 9 -9 12
-90 10 -358 l-3 -347 -112 62 -113 62 0 142 c0 86 -4 144 -10 148 -6 4 -78
-32 -160 -80 l-150 -87 0 -180 c0 -167 1 -180 17 -174 10 4 68 36 130 72 l112
65 116 -67 c81 -47 112 -70 103 -76 -7 -5 -41 -25 -75 -44 -35 -20 -63 -38
-63 -40 0 -2 122 -4 270 -4 l270 0 0 663 0 662 -24 50 c-27 59 -46 77 -106
104 -44 20 -62 21 -871 21 l-827 0 -53 -28z"/>
</g>
</svg>
